M48
;DRILL file {KiCad 4.0.5} date 09/12/17 13:54:23
;FORMAT={-:-/ absolute / metric / decimal}
FMAT,2
METRIC,TZ
T1C1.000
T2C1.100
T3C1.800
%
G90
G05
M71
T1
X158.369Y-99.695
X158.369Y-102.235
X158.369Y-104.775
X158.369Y-107.315
X158.369Y-109.855
X158.369Y-112.395
X158.369Y-114.935
X158.369Y-117.475
X158.369Y-120.015
X158.369Y-122.555
X158.369Y-125.095
X158.369Y-127.635
X158.369Y-130.175
X158.369Y-132.715
X158.369Y-135.255
X158.369Y-137.795
X158.369Y-140.335
X158.369Y-142.875
X158.369Y-145.415
X158.369Y-147.955
X219.075Y-115.697
X219.075Y-118.237
X219.075Y-120.777
X219.075Y-123.317
X219.075Y-125.857
X219.075Y-128.397
X219.075Y-130.937
T2
X173.101Y-103.496
X173.101Y-105.274
X173.101Y-107.052
X173.101Y-108.83
X173.101Y-110.608
X173.101Y-112.386
X173.101Y-114.164
X173.101Y-115.942
X173.101Y-123.807
X173.101Y-125.857
X173.101Y-132.697
X173.101Y-134.747
X173.101Y-141.587
X173.101Y-143.637
X177.201Y-119.498
X177.201Y-121.276
X177.201Y-128.388
X177.201Y-130.166
X177.201Y-137.278
X177.201Y-139.056
T3
X203.701Y-104.703
X203.701Y-108.703
X203.701Y-112.703
X203.701Y-120.323
X203.701Y-127.943
X203.701Y-135.563
X203.701Y-143.183
T0
M30
