G04 #@! TF.FileFunction,Legend,Top*
%FSLAX46Y46*%
G04 Gerber Fmt 4.6, Leading zero omitted, Abs format (unit mm)*
G04 Created by KiCad (PCBNEW 4.0.5) date 09/14/17 13:27:59*
%MOMM*%
%LPD*%
G01*
G04 APERTURE LIST*
%ADD10C,0.100000*%
%ADD11C,0.300000*%
%ADD12C,0.120000*%
%ADD13C,0.150000*%
%ADD14C,0.002540*%
G04 APERTURE END LIST*
D10*
D11*
X214757143Y-130131429D02*
X214828572Y-130060000D01*
X214971429Y-129988571D01*
X215328572Y-129988571D01*
X215471429Y-130060000D01*
X215542858Y-130131429D01*
X215614286Y-130274286D01*
X215614286Y-130417143D01*
X215542858Y-130631429D01*
X214685715Y-131488571D01*
X215614286Y-131488571D01*
X216114286Y-129988571D02*
X217114286Y-129988571D01*
X216471429Y-131488571D01*
X214757143Y-127591429D02*
X214828572Y-127520000D01*
X214971429Y-127448571D01*
X215328572Y-127448571D01*
X215471429Y-127520000D01*
X215542858Y-127591429D01*
X215614286Y-127734286D01*
X215614286Y-127877143D01*
X215542858Y-128091429D01*
X214685715Y-128948571D01*
X215614286Y-128948571D01*
X216900000Y-127448571D02*
X216614286Y-127448571D01*
X216471429Y-127520000D01*
X216400000Y-127591429D01*
X216257143Y-127805714D01*
X216185714Y-128091429D01*
X216185714Y-128662857D01*
X216257143Y-128805714D01*
X216328571Y-128877143D01*
X216471429Y-128948571D01*
X216757143Y-128948571D01*
X216900000Y-128877143D01*
X216971429Y-128805714D01*
X217042857Y-128662857D01*
X217042857Y-128305714D01*
X216971429Y-128162857D01*
X216900000Y-128091429D01*
X216757143Y-128020000D01*
X216471429Y-128020000D01*
X216328571Y-128091429D01*
X216257143Y-128162857D01*
X216185714Y-128305714D01*
X214757143Y-125051429D02*
X214828572Y-124980000D01*
X214971429Y-124908571D01*
X215328572Y-124908571D01*
X215471429Y-124980000D01*
X215542858Y-125051429D01*
X215614286Y-125194286D01*
X215614286Y-125337143D01*
X215542858Y-125551429D01*
X214685715Y-126408571D01*
X215614286Y-126408571D01*
X216971429Y-124908571D02*
X216257143Y-124908571D01*
X216185714Y-125622857D01*
X216257143Y-125551429D01*
X216400000Y-125480000D01*
X216757143Y-125480000D01*
X216900000Y-125551429D01*
X216971429Y-125622857D01*
X217042857Y-125765714D01*
X217042857Y-126122857D01*
X216971429Y-126265714D01*
X216900000Y-126337143D01*
X216757143Y-126408571D01*
X216400000Y-126408571D01*
X216257143Y-126337143D01*
X216185714Y-126265714D01*
X214757143Y-122511429D02*
X214828572Y-122440000D01*
X214971429Y-122368571D01*
X215328572Y-122368571D01*
X215471429Y-122440000D01*
X215542858Y-122511429D01*
X215614286Y-122654286D01*
X215614286Y-122797143D01*
X215542858Y-123011429D01*
X214685715Y-123868571D01*
X215614286Y-123868571D01*
X216900000Y-122868571D02*
X216900000Y-123868571D01*
X216542857Y-122297143D02*
X216185714Y-123368571D01*
X217114286Y-123368571D01*
X214503143Y-119971429D02*
X214574572Y-119900000D01*
X214717429Y-119828571D01*
X215074572Y-119828571D01*
X215217429Y-119900000D01*
X215288858Y-119971429D01*
X215360286Y-120114286D01*
X215360286Y-120257143D01*
X215288858Y-120471429D01*
X214431715Y-121328571D01*
X215360286Y-121328571D01*
X215860286Y-119828571D02*
X216788857Y-119828571D01*
X216288857Y-120400000D01*
X216503143Y-120400000D01*
X216646000Y-120471429D01*
X216717429Y-120542857D01*
X216788857Y-120685714D01*
X216788857Y-121042857D01*
X216717429Y-121185714D01*
X216646000Y-121257143D01*
X216503143Y-121328571D01*
X216074571Y-121328571D01*
X215931714Y-121257143D01*
X215860286Y-121185714D01*
X214503143Y-117431429D02*
X214574572Y-117360000D01*
X214717429Y-117288571D01*
X215074572Y-117288571D01*
X215217429Y-117360000D01*
X215288858Y-117431429D01*
X215360286Y-117574286D01*
X215360286Y-117717143D01*
X215288858Y-117931429D01*
X214431715Y-118788571D01*
X215360286Y-118788571D01*
X215931714Y-117431429D02*
X216003143Y-117360000D01*
X216146000Y-117288571D01*
X216503143Y-117288571D01*
X216646000Y-117360000D01*
X216717429Y-117431429D01*
X216788857Y-117574286D01*
X216788857Y-117717143D01*
X216717429Y-117931429D01*
X215860286Y-118788571D01*
X216788857Y-118788571D01*
X214503143Y-114891429D02*
X214574572Y-114820000D01*
X214717429Y-114748571D01*
X215074572Y-114748571D01*
X215217429Y-114820000D01*
X215288858Y-114891429D01*
X215360286Y-115034286D01*
X215360286Y-115177143D01*
X215288858Y-115391429D01*
X214431715Y-116248571D01*
X215360286Y-116248571D01*
X216788857Y-116248571D02*
X215931714Y-116248571D01*
X216360286Y-116248571D02*
X216360286Y-114748571D01*
X216217429Y-114962857D01*
X216074571Y-115105714D01*
X215931714Y-115177143D01*
X160655143Y-147149429D02*
X160726572Y-147078000D01*
X160869429Y-147006571D01*
X161226572Y-147006571D01*
X161369429Y-147078000D01*
X161440858Y-147149429D01*
X161512286Y-147292286D01*
X161512286Y-147435143D01*
X161440858Y-147649429D01*
X160583715Y-148506571D01*
X161512286Y-148506571D01*
X162440857Y-147006571D02*
X162583714Y-147006571D01*
X162726571Y-147078000D01*
X162798000Y-147149429D01*
X162869429Y-147292286D01*
X162940857Y-147578000D01*
X162940857Y-147935143D01*
X162869429Y-148220857D01*
X162798000Y-148363714D01*
X162726571Y-148435143D01*
X162583714Y-148506571D01*
X162440857Y-148506571D01*
X162298000Y-148435143D01*
X162226571Y-148363714D01*
X162155143Y-148220857D01*
X162083714Y-147935143D01*
X162083714Y-147578000D01*
X162155143Y-147292286D01*
X162226571Y-147149429D01*
X162298000Y-147078000D01*
X162440857Y-147006571D01*
X161512286Y-145966571D02*
X160655143Y-145966571D01*
X161083715Y-145966571D02*
X161083715Y-144466571D01*
X160940858Y-144680857D01*
X160798000Y-144823714D01*
X160655143Y-144895143D01*
X162226571Y-145966571D02*
X162512286Y-145966571D01*
X162655143Y-145895143D01*
X162726571Y-145823714D01*
X162869429Y-145609429D01*
X162940857Y-145323714D01*
X162940857Y-144752286D01*
X162869429Y-144609429D01*
X162798000Y-144538000D01*
X162655143Y-144466571D01*
X162369429Y-144466571D01*
X162226571Y-144538000D01*
X162155143Y-144609429D01*
X162083714Y-144752286D01*
X162083714Y-145109429D01*
X162155143Y-145252286D01*
X162226571Y-145323714D01*
X162369429Y-145395143D01*
X162655143Y-145395143D01*
X162798000Y-145323714D01*
X162869429Y-145252286D01*
X162940857Y-145109429D01*
X161512286Y-143426571D02*
X160655143Y-143426571D01*
X161083715Y-143426571D02*
X161083715Y-141926571D01*
X160940858Y-142140857D01*
X160798000Y-142283714D01*
X160655143Y-142355143D01*
X162369429Y-142569429D02*
X162226571Y-142498000D01*
X162155143Y-142426571D01*
X162083714Y-142283714D01*
X162083714Y-142212286D01*
X162155143Y-142069429D01*
X162226571Y-141998000D01*
X162369429Y-141926571D01*
X162655143Y-141926571D01*
X162798000Y-141998000D01*
X162869429Y-142069429D01*
X162940857Y-142212286D01*
X162940857Y-142283714D01*
X162869429Y-142426571D01*
X162798000Y-142498000D01*
X162655143Y-142569429D01*
X162369429Y-142569429D01*
X162226571Y-142640857D01*
X162155143Y-142712286D01*
X162083714Y-142855143D01*
X162083714Y-143140857D01*
X162155143Y-143283714D01*
X162226571Y-143355143D01*
X162369429Y-143426571D01*
X162655143Y-143426571D01*
X162798000Y-143355143D01*
X162869429Y-143283714D01*
X162940857Y-143140857D01*
X162940857Y-142855143D01*
X162869429Y-142712286D01*
X162798000Y-142640857D01*
X162655143Y-142569429D01*
X161512286Y-140886571D02*
X160655143Y-140886571D01*
X161083715Y-140886571D02*
X161083715Y-139386571D01*
X160940858Y-139600857D01*
X160798000Y-139743714D01*
X160655143Y-139815143D01*
X162012286Y-139386571D02*
X163012286Y-139386571D01*
X162369429Y-140886571D01*
X161512286Y-138346571D02*
X160655143Y-138346571D01*
X161083715Y-138346571D02*
X161083715Y-136846571D01*
X160940858Y-137060857D01*
X160798000Y-137203714D01*
X160655143Y-137275143D01*
X162798000Y-136846571D02*
X162512286Y-136846571D01*
X162369429Y-136918000D01*
X162298000Y-136989429D01*
X162155143Y-137203714D01*
X162083714Y-137489429D01*
X162083714Y-138060857D01*
X162155143Y-138203714D01*
X162226571Y-138275143D01*
X162369429Y-138346571D01*
X162655143Y-138346571D01*
X162798000Y-138275143D01*
X162869429Y-138203714D01*
X162940857Y-138060857D01*
X162940857Y-137703714D01*
X162869429Y-137560857D01*
X162798000Y-137489429D01*
X162655143Y-137418000D01*
X162369429Y-137418000D01*
X162226571Y-137489429D01*
X162155143Y-137560857D01*
X162083714Y-137703714D01*
X161512286Y-135806571D02*
X160655143Y-135806571D01*
X161083715Y-135806571D02*
X161083715Y-134306571D01*
X160940858Y-134520857D01*
X160798000Y-134663714D01*
X160655143Y-134735143D01*
X162869429Y-134306571D02*
X162155143Y-134306571D01*
X162083714Y-135020857D01*
X162155143Y-134949429D01*
X162298000Y-134878000D01*
X162655143Y-134878000D01*
X162798000Y-134949429D01*
X162869429Y-135020857D01*
X162940857Y-135163714D01*
X162940857Y-135520857D01*
X162869429Y-135663714D01*
X162798000Y-135735143D01*
X162655143Y-135806571D01*
X162298000Y-135806571D01*
X162155143Y-135735143D01*
X162083714Y-135663714D01*
X161512286Y-133266571D02*
X160655143Y-133266571D01*
X161083715Y-133266571D02*
X161083715Y-131766571D01*
X160940858Y-131980857D01*
X160798000Y-132123714D01*
X160655143Y-132195143D01*
X162798000Y-132266571D02*
X162798000Y-133266571D01*
X162440857Y-131695143D02*
X162083714Y-132766571D01*
X163012286Y-132766571D01*
X161512286Y-130726571D02*
X160655143Y-130726571D01*
X161083715Y-130726571D02*
X161083715Y-129226571D01*
X160940858Y-129440857D01*
X160798000Y-129583714D01*
X160655143Y-129655143D01*
X162012286Y-129226571D02*
X162940857Y-129226571D01*
X162440857Y-129798000D01*
X162655143Y-129798000D01*
X162798000Y-129869429D01*
X162869429Y-129940857D01*
X162940857Y-130083714D01*
X162940857Y-130440857D01*
X162869429Y-130583714D01*
X162798000Y-130655143D01*
X162655143Y-130726571D01*
X162226571Y-130726571D01*
X162083714Y-130655143D01*
X162012286Y-130583714D01*
X161512286Y-128186571D02*
X160655143Y-128186571D01*
X161083715Y-128186571D02*
X161083715Y-126686571D01*
X160940858Y-126900857D01*
X160798000Y-127043714D01*
X160655143Y-127115143D01*
X162083714Y-126829429D02*
X162155143Y-126758000D01*
X162298000Y-126686571D01*
X162655143Y-126686571D01*
X162798000Y-126758000D01*
X162869429Y-126829429D01*
X162940857Y-126972286D01*
X162940857Y-127115143D01*
X162869429Y-127329429D01*
X162012286Y-128186571D01*
X162940857Y-128186571D01*
X161512286Y-125646571D02*
X160655143Y-125646571D01*
X161083715Y-125646571D02*
X161083715Y-124146571D01*
X160940858Y-124360857D01*
X160798000Y-124503714D01*
X160655143Y-124575143D01*
X162940857Y-125646571D02*
X162083714Y-125646571D01*
X162512286Y-125646571D02*
X162512286Y-124146571D01*
X162369429Y-124360857D01*
X162226571Y-124503714D01*
X162083714Y-124575143D01*
X161512286Y-123106571D02*
X160655143Y-123106571D01*
X161083715Y-123106571D02*
X161083715Y-121606571D01*
X160940858Y-121820857D01*
X160798000Y-121963714D01*
X160655143Y-122035143D01*
X162440857Y-121606571D02*
X162583714Y-121606571D01*
X162726571Y-121678000D01*
X162798000Y-121749429D01*
X162869429Y-121892286D01*
X162940857Y-122178000D01*
X162940857Y-122535143D01*
X162869429Y-122820857D01*
X162798000Y-122963714D01*
X162726571Y-123035143D01*
X162583714Y-123106571D01*
X162440857Y-123106571D01*
X162298000Y-123035143D01*
X162226571Y-122963714D01*
X162155143Y-122820857D01*
X162083714Y-122535143D01*
X162083714Y-122178000D01*
X162155143Y-121892286D01*
X162226571Y-121749429D01*
X162298000Y-121678000D01*
X162440857Y-121606571D01*
X160750286Y-120566571D02*
X161036001Y-120566571D01*
X161178858Y-120495143D01*
X161250286Y-120423714D01*
X161393144Y-120209429D01*
X161464572Y-119923714D01*
X161464572Y-119352286D01*
X161393144Y-119209429D01*
X161321715Y-119138000D01*
X161178858Y-119066571D01*
X160893144Y-119066571D01*
X160750286Y-119138000D01*
X160678858Y-119209429D01*
X160607429Y-119352286D01*
X160607429Y-119709429D01*
X160678858Y-119852286D01*
X160750286Y-119923714D01*
X160893144Y-119995143D01*
X161178858Y-119995143D01*
X161321715Y-119923714D01*
X161393144Y-119852286D01*
X161464572Y-119709429D01*
X160893144Y-117169429D02*
X160750286Y-117098000D01*
X160678858Y-117026571D01*
X160607429Y-116883714D01*
X160607429Y-116812286D01*
X160678858Y-116669429D01*
X160750286Y-116598000D01*
X160893144Y-116526571D01*
X161178858Y-116526571D01*
X161321715Y-116598000D01*
X161393144Y-116669429D01*
X161464572Y-116812286D01*
X161464572Y-116883714D01*
X161393144Y-117026571D01*
X161321715Y-117098000D01*
X161178858Y-117169429D01*
X160893144Y-117169429D01*
X160750286Y-117240857D01*
X160678858Y-117312286D01*
X160607429Y-117455143D01*
X160607429Y-117740857D01*
X160678858Y-117883714D01*
X160750286Y-117955143D01*
X160893144Y-118026571D01*
X161178858Y-118026571D01*
X161321715Y-117955143D01*
X161393144Y-117883714D01*
X161464572Y-117740857D01*
X161464572Y-117455143D01*
X161393144Y-117312286D01*
X161321715Y-117240857D01*
X161178858Y-117169429D01*
X160536001Y-113986571D02*
X161536001Y-113986571D01*
X160893144Y-115486571D01*
X161321715Y-111446571D02*
X161036001Y-111446571D01*
X160893144Y-111518000D01*
X160821715Y-111589429D01*
X160678858Y-111803714D01*
X160607429Y-112089429D01*
X160607429Y-112660857D01*
X160678858Y-112803714D01*
X160750286Y-112875143D01*
X160893144Y-112946571D01*
X161178858Y-112946571D01*
X161321715Y-112875143D01*
X161393144Y-112803714D01*
X161464572Y-112660857D01*
X161464572Y-112303714D01*
X161393144Y-112160857D01*
X161321715Y-112089429D01*
X161178858Y-112018000D01*
X160893144Y-112018000D01*
X160750286Y-112089429D01*
X160678858Y-112160857D01*
X160607429Y-112303714D01*
X161393144Y-108906571D02*
X160678858Y-108906571D01*
X160607429Y-109620857D01*
X160678858Y-109549429D01*
X160821715Y-109478000D01*
X161178858Y-109478000D01*
X161321715Y-109549429D01*
X161393144Y-109620857D01*
X161464572Y-109763714D01*
X161464572Y-110120857D01*
X161393144Y-110263714D01*
X161321715Y-110335143D01*
X161178858Y-110406571D01*
X160821715Y-110406571D01*
X160678858Y-110335143D01*
X160607429Y-110263714D01*
X161321715Y-106866571D02*
X161321715Y-107866571D01*
X160964572Y-106295143D02*
X160607429Y-107366571D01*
X161536001Y-107366571D01*
X160536001Y-103826571D02*
X161464572Y-103826571D01*
X160964572Y-104398000D01*
X161178858Y-104398000D01*
X161321715Y-104469429D01*
X161393144Y-104540857D01*
X161464572Y-104683714D01*
X161464572Y-105040857D01*
X161393144Y-105183714D01*
X161321715Y-105255143D01*
X161178858Y-105326571D01*
X160750286Y-105326571D01*
X160607429Y-105255143D01*
X160536001Y-105183714D01*
X160607429Y-101429429D02*
X160678858Y-101358000D01*
X160821715Y-101286571D01*
X161178858Y-101286571D01*
X161321715Y-101358000D01*
X161393144Y-101429429D01*
X161464572Y-101572286D01*
X161464572Y-101715143D01*
X161393144Y-101929429D01*
X160536001Y-102786571D01*
X161464572Y-102786571D01*
X161464572Y-100246571D02*
X160607429Y-100246571D01*
X161036001Y-100246571D02*
X161036001Y-98746571D01*
X160893144Y-98960857D01*
X160750286Y-99103714D01*
X160607429Y-99175143D01*
X203464002Y-99445857D02*
X202964002Y-99445857D01*
X202964002Y-100231571D02*
X202964002Y-98731571D01*
X203678288Y-98731571D01*
X204249716Y-100231571D02*
X204249716Y-99231571D01*
X204249716Y-98731571D02*
X204178287Y-98803000D01*
X204249716Y-98874429D01*
X204321144Y-98803000D01*
X204249716Y-98731571D01*
X204249716Y-98874429D01*
X204892573Y-100160143D02*
X205035430Y-100231571D01*
X205321145Y-100231571D01*
X205464002Y-100160143D01*
X205535430Y-100017286D01*
X205535430Y-99945857D01*
X205464002Y-99803000D01*
X205321145Y-99731571D01*
X205106859Y-99731571D01*
X204964002Y-99660143D01*
X204892573Y-99517286D01*
X204892573Y-99445857D01*
X204964002Y-99303000D01*
X205106859Y-99231571D01*
X205321145Y-99231571D01*
X205464002Y-99303000D01*
X206178288Y-100231571D02*
X206178288Y-98731571D01*
X206321145Y-99660143D02*
X206749716Y-100231571D01*
X206749716Y-99231571D02*
X206178288Y-99803000D01*
X207964002Y-100160143D02*
X207821145Y-100231571D01*
X207535431Y-100231571D01*
X207392574Y-100160143D01*
X207321145Y-100017286D01*
X207321145Y-99445857D01*
X207392574Y-99303000D01*
X207535431Y-99231571D01*
X207821145Y-99231571D01*
X207964002Y-99303000D01*
X208035431Y-99445857D01*
X208035431Y-99588714D01*
X207321145Y-99731571D01*
X208892574Y-100231571D02*
X208749716Y-100160143D01*
X208678288Y-100017286D01*
X208678288Y-98731571D01*
X209678288Y-100231571D02*
X209535430Y-100160143D01*
X209464002Y-100088714D01*
X209392573Y-99945857D01*
X209392573Y-99517286D01*
X209464002Y-99374429D01*
X209535430Y-99303000D01*
X209678288Y-99231571D01*
X209892573Y-99231571D01*
X210035430Y-99303000D01*
X210106859Y-99374429D01*
X210178288Y-99517286D01*
X210178288Y-99945857D01*
X210106859Y-100088714D01*
X210035430Y-100160143D01*
X209892573Y-100231571D01*
X209678288Y-100231571D01*
X210821145Y-100231571D02*
X210821145Y-99231571D01*
X210821145Y-99517286D02*
X210892573Y-99374429D01*
X210964002Y-99303000D01*
X211106859Y-99231571D01*
X211249716Y-99231571D01*
X212392573Y-100231571D02*
X212392573Y-98731571D01*
X212392573Y-100160143D02*
X212249716Y-100231571D01*
X211964002Y-100231571D01*
X211821144Y-100160143D01*
X211749716Y-100088714D01*
X211678287Y-99945857D01*
X211678287Y-99517286D01*
X211749716Y-99374429D01*
X211821144Y-99303000D01*
X211964002Y-99231571D01*
X212249716Y-99231571D01*
X212392573Y-99303000D01*
X213035430Y-99231571D02*
X214106859Y-99231571D01*
X213464002Y-98588714D02*
X213035430Y-100517286D01*
X213964002Y-99874429D02*
X212892573Y-99874429D01*
X213535430Y-100517286D02*
X213964002Y-98588714D01*
X214535430Y-98874429D02*
X214606859Y-98803000D01*
X214749716Y-98731571D01*
X215106859Y-98731571D01*
X215249716Y-98803000D01*
X215321145Y-98874429D01*
X215392573Y-99017286D01*
X215392573Y-99160143D01*
X215321145Y-99374429D01*
X214464002Y-100231571D01*
X215392573Y-100231571D01*
X216321144Y-98731571D02*
X216464001Y-98731571D01*
X216606858Y-98803000D01*
X216678287Y-98874429D01*
X216749716Y-99017286D01*
X216821144Y-99303000D01*
X216821144Y-99660143D01*
X216749716Y-99945857D01*
X216678287Y-100088714D01*
X216606858Y-100160143D01*
X216464001Y-100231571D01*
X216321144Y-100231571D01*
X216178287Y-100160143D01*
X216106858Y-100088714D01*
X216035430Y-99945857D01*
X215964001Y-99660143D01*
X215964001Y-99303000D01*
X216035430Y-99017286D01*
X216106858Y-98874429D01*
X216178287Y-98803000D01*
X216321144Y-98731571D01*
X218249715Y-100231571D02*
X217392572Y-100231571D01*
X217821144Y-100231571D02*
X217821144Y-98731571D01*
X217678287Y-98945857D01*
X217535429Y-99088714D01*
X217392572Y-99160143D01*
X218749715Y-98731571D02*
X219749715Y-98731571D01*
X219106858Y-100231571D01*
X206178285Y-101781571D02*
X206749714Y-101781571D01*
X206392571Y-102781571D02*
X206392571Y-101495857D01*
X206463999Y-101353000D01*
X206606857Y-101281571D01*
X206749714Y-101281571D01*
X207249714Y-102781571D02*
X207249714Y-101781571D01*
X207249714Y-101281571D02*
X207178285Y-101353000D01*
X207249714Y-101424429D01*
X207321142Y-101353000D01*
X207249714Y-101281571D01*
X207249714Y-101424429D01*
X207892571Y-102710143D02*
X208035428Y-102781571D01*
X208321143Y-102781571D01*
X208464000Y-102710143D01*
X208535428Y-102567286D01*
X208535428Y-102495857D01*
X208464000Y-102353000D01*
X208321143Y-102281571D01*
X208106857Y-102281571D01*
X207964000Y-102210143D01*
X207892571Y-102067286D01*
X207892571Y-101995857D01*
X207964000Y-101853000D01*
X208106857Y-101781571D01*
X208321143Y-101781571D01*
X208464000Y-101853000D01*
X209178286Y-102781571D02*
X209178286Y-101281571D01*
X209321143Y-102210143D02*
X209749714Y-102781571D01*
X209749714Y-101781571D02*
X209178286Y-102353000D01*
X210964000Y-102710143D02*
X210821143Y-102781571D01*
X210535429Y-102781571D01*
X210392572Y-102710143D01*
X210321143Y-102567286D01*
X210321143Y-101995857D01*
X210392572Y-101853000D01*
X210535429Y-101781571D01*
X210821143Y-101781571D01*
X210964000Y-101853000D01*
X211035429Y-101995857D01*
X211035429Y-102138714D01*
X210321143Y-102281571D01*
X211892572Y-102781571D02*
X211749714Y-102710143D01*
X211678286Y-102567286D01*
X211678286Y-101281571D01*
X212678286Y-102781571D02*
X212535428Y-102710143D01*
X212464000Y-102638714D01*
X212392571Y-102495857D01*
X212392571Y-102067286D01*
X212464000Y-101924429D01*
X212535428Y-101853000D01*
X212678286Y-101781571D01*
X212892571Y-101781571D01*
X213035428Y-101853000D01*
X213106857Y-101924429D01*
X213178286Y-102067286D01*
X213178286Y-102495857D01*
X213106857Y-102638714D01*
X213035428Y-102710143D01*
X212892571Y-102781571D01*
X212678286Y-102781571D01*
X213821143Y-102781571D02*
X213821143Y-101781571D01*
X213821143Y-102067286D02*
X213892571Y-101924429D01*
X213964000Y-101853000D01*
X214106857Y-101781571D01*
X214249714Y-101781571D01*
X215392571Y-102781571D02*
X215392571Y-101281571D01*
X215392571Y-102710143D02*
X215249714Y-102781571D01*
X214964000Y-102781571D01*
X214821142Y-102710143D01*
X214749714Y-102638714D01*
X214678285Y-102495857D01*
X214678285Y-102067286D01*
X214749714Y-101924429D01*
X214821142Y-101853000D01*
X214964000Y-101781571D01*
X215249714Y-101781571D01*
X215392571Y-101853000D01*
X216106857Y-102638714D02*
X216178285Y-102710143D01*
X216106857Y-102781571D01*
X216035428Y-102710143D01*
X216106857Y-102638714D01*
X216106857Y-102781571D01*
X216821143Y-101781571D02*
X216821143Y-102781571D01*
X216821143Y-101924429D02*
X216892571Y-101853000D01*
X217035429Y-101781571D01*
X217249714Y-101781571D01*
X217392571Y-101853000D01*
X217464000Y-101995857D01*
X217464000Y-102781571D01*
X218749714Y-102710143D02*
X218606857Y-102781571D01*
X218321143Y-102781571D01*
X218178286Y-102710143D01*
X218106857Y-102567286D01*
X218106857Y-101995857D01*
X218178286Y-101853000D01*
X218321143Y-101781571D01*
X218606857Y-101781571D01*
X218749714Y-101853000D01*
X218821143Y-101995857D01*
X218821143Y-102138714D01*
X218106857Y-102281571D01*
X219249714Y-101781571D02*
X219821143Y-101781571D01*
X219464000Y-101281571D02*
X219464000Y-102567286D01*
X219535428Y-102710143D01*
X219678286Y-102781571D01*
X219821143Y-102781571D01*
X210821144Y-105260143D02*
X211035430Y-105331571D01*
X211392573Y-105331571D01*
X211535430Y-105260143D01*
X211606859Y-105188714D01*
X211678287Y-105045857D01*
X211678287Y-104903000D01*
X211606859Y-104760143D01*
X211535430Y-104688714D01*
X211392573Y-104617286D01*
X211106859Y-104545857D01*
X210964001Y-104474429D01*
X210892573Y-104403000D01*
X210821144Y-104260143D01*
X210821144Y-104117286D01*
X210892573Y-103974429D01*
X210964001Y-103903000D01*
X211106859Y-103831571D01*
X211464001Y-103831571D01*
X211678287Y-103903000D01*
X212321144Y-105331571D02*
X212321144Y-103831571D01*
X213178287Y-105331571D01*
X213178287Y-103831571D01*
X213892573Y-105188714D02*
X213964001Y-105260143D01*
X213892573Y-105331571D01*
X213821144Y-105260143D01*
X213892573Y-105188714D01*
X213892573Y-105331571D01*
X213892573Y-104403000D02*
X213964001Y-104474429D01*
X213892573Y-104545857D01*
X213821144Y-104474429D01*
X213892573Y-104403000D01*
X213892573Y-104545857D01*
X214892573Y-103831571D02*
X215035430Y-103831571D01*
X215178287Y-103903000D01*
X215249716Y-103974429D01*
X215321145Y-104117286D01*
X215392573Y-104403000D01*
X215392573Y-104760143D01*
X215321145Y-105045857D01*
X215249716Y-105188714D01*
X215178287Y-105260143D01*
X215035430Y-105331571D01*
X214892573Y-105331571D01*
X214749716Y-105260143D01*
X214678287Y-105188714D01*
X214606859Y-105045857D01*
X214535430Y-104760143D01*
X214535430Y-104403000D01*
X214606859Y-104117286D01*
X214678287Y-103974429D01*
X214749716Y-103903000D01*
X214892573Y-103831571D01*
X216321144Y-103831571D02*
X216464001Y-103831571D01*
X216606858Y-103903000D01*
X216678287Y-103974429D01*
X216749716Y-104117286D01*
X216821144Y-104403000D01*
X216821144Y-104760143D01*
X216749716Y-105045857D01*
X216678287Y-105188714D01*
X216606858Y-105260143D01*
X216464001Y-105331571D01*
X216321144Y-105331571D01*
X216178287Y-105260143D01*
X216106858Y-105188714D01*
X216035430Y-105045857D01*
X215964001Y-104760143D01*
X215964001Y-104403000D01*
X216035430Y-104117286D01*
X216106858Y-103974429D01*
X216178287Y-103903000D01*
X216321144Y-103831571D01*
X217749715Y-103831571D02*
X217892572Y-103831571D01*
X218035429Y-103903000D01*
X218106858Y-103974429D01*
X218178287Y-104117286D01*
X218249715Y-104403000D01*
X218249715Y-104760143D01*
X218178287Y-105045857D01*
X218106858Y-105188714D01*
X218035429Y-105260143D01*
X217892572Y-105331571D01*
X217749715Y-105331571D01*
X217606858Y-105260143D01*
X217535429Y-105188714D01*
X217464001Y-105045857D01*
X217392572Y-104760143D01*
X217392572Y-104403000D01*
X217464001Y-104117286D01*
X217535429Y-103974429D01*
X217606858Y-103903000D01*
X217749715Y-103831571D01*
X219678286Y-105331571D02*
X218821143Y-105331571D01*
X219249715Y-105331571D02*
X219249715Y-103831571D01*
X219106858Y-104045857D01*
X218964000Y-104188714D01*
X218821143Y-104260143D01*
X213106858Y-106381571D02*
X213606858Y-107881571D01*
X214106858Y-106381571D01*
X215392572Y-107881571D02*
X214535429Y-107881571D01*
X214964001Y-107881571D02*
X214964001Y-106381571D01*
X214821144Y-106595857D01*
X214678286Y-106738714D01*
X214535429Y-106810143D01*
X216035429Y-107738714D02*
X216106857Y-107810143D01*
X216035429Y-107881571D01*
X215964000Y-107810143D01*
X216035429Y-107738714D01*
X216035429Y-107881571D01*
X217035429Y-106381571D02*
X217178286Y-106381571D01*
X217321143Y-106453000D01*
X217392572Y-106524429D01*
X217464001Y-106667286D01*
X217535429Y-106953000D01*
X217535429Y-107310143D01*
X217464001Y-107595857D01*
X217392572Y-107738714D01*
X217321143Y-107810143D01*
X217178286Y-107881571D01*
X217035429Y-107881571D01*
X216892572Y-107810143D01*
X216821143Y-107738714D01*
X216749715Y-107595857D01*
X216678286Y-107310143D01*
X216678286Y-106953000D01*
X216749715Y-106667286D01*
X216821143Y-106524429D01*
X216892572Y-106453000D01*
X217035429Y-106381571D01*
X218178286Y-107738714D02*
X218249714Y-107810143D01*
X218178286Y-107881571D01*
X218106857Y-107810143D01*
X218178286Y-107738714D01*
X218178286Y-107881571D01*
X219178286Y-106381571D02*
X219321143Y-106381571D01*
X219464000Y-106453000D01*
X219535429Y-106524429D01*
X219606858Y-106667286D01*
X219678286Y-106953000D01*
X219678286Y-107310143D01*
X219606858Y-107595857D01*
X219535429Y-107738714D01*
X219464000Y-107810143D01*
X219321143Y-107881571D01*
X219178286Y-107881571D01*
X219035429Y-107810143D01*
X218964000Y-107738714D01*
X218892572Y-107595857D01*
X218821143Y-107310143D01*
X218821143Y-106953000D01*
X218892572Y-106667286D01*
X218964000Y-106524429D01*
X219035429Y-106453000D01*
X219178286Y-106381571D01*
D12*
X157039000Y-149285000D02*
X159699000Y-149285000D01*
X157039000Y-100965000D02*
X157039000Y-149285000D01*
X159699000Y-100965000D02*
X159699000Y-149285000D01*
X157039000Y-100965000D02*
X159699000Y-100965000D01*
X157039000Y-99695000D02*
X157039000Y-98365000D01*
X157039000Y-98365000D02*
X158369000Y-98365000D01*
X217745000Y-132267000D02*
X220405000Y-132267000D01*
X217745000Y-116967000D02*
X217745000Y-132267000D01*
X220405000Y-116967000D02*
X220405000Y-132267000D01*
X217745000Y-116967000D02*
X220405000Y-116967000D01*
X217745000Y-115697000D02*
X217745000Y-114367000D01*
X217745000Y-114367000D02*
X219075000Y-114367000D01*
D13*
X196901000Y-141037000D02*
X185301000Y-141037000D01*
X185301000Y-141037000D02*
X185301000Y-106537000D01*
X185301000Y-106537000D02*
X196901000Y-106537000D01*
X196901000Y-106537000D02*
X196901000Y-141037000D01*
X180401000Y-103237000D02*
X200301000Y-103237000D01*
X200301000Y-103237000D02*
X200301000Y-144437000D01*
X200301000Y-144437000D02*
X180401000Y-144437000D01*
X180401000Y-144437000D02*
X180401000Y-103237000D01*
X203401000Y-141537000D02*
X203401000Y-144937000D01*
X201701000Y-141537000D02*
X203401000Y-141537000D01*
X201701000Y-144937000D02*
X201701000Y-141537000D01*
X203401000Y-144937000D02*
X201701000Y-144937000D01*
X203401000Y-137237000D02*
X201701000Y-137237000D01*
X201701000Y-137237000D02*
X201701000Y-133837000D01*
X201701000Y-133837000D02*
X203401000Y-133837000D01*
X203401000Y-133837000D02*
X203401000Y-137237000D01*
X203401000Y-126237000D02*
X203401000Y-129637000D01*
X201701000Y-126237000D02*
X203401000Y-126237000D01*
X201701000Y-129637000D02*
X201701000Y-126237000D01*
X203401000Y-129637000D02*
X201701000Y-129637000D01*
X203401000Y-122037000D02*
X201701000Y-122037000D01*
X201701000Y-122037000D02*
X201701000Y-118637000D01*
X201701000Y-118637000D02*
X203401000Y-118637000D01*
X203401000Y-118637000D02*
X203401000Y-122037000D01*
X203301000Y-113637000D02*
X201801000Y-113637000D01*
X201801000Y-113637000D02*
X201701000Y-113637000D01*
X201701000Y-113637000D02*
X201701000Y-111837000D01*
X201701000Y-111837000D02*
X203301000Y-111837000D01*
X203301000Y-111837000D02*
X203301000Y-113637000D01*
X203301000Y-107837000D02*
X203301000Y-109637000D01*
X201701000Y-107837000D02*
X203301000Y-107837000D01*
X201701000Y-109637000D02*
X201701000Y-107837000D01*
X201801000Y-109637000D02*
X201701000Y-109637000D01*
X203301000Y-109637000D02*
X201801000Y-109637000D01*
X203301000Y-105637000D02*
X201801000Y-105637000D01*
X201801000Y-105637000D02*
X201701000Y-105637000D01*
X201701000Y-105637000D02*
X201701000Y-103837000D01*
X201701000Y-103837000D02*
X203301000Y-103837000D01*
X203301000Y-103837000D02*
X203301000Y-105637000D01*
X173601000Y-103237000D02*
X174701000Y-103237000D01*
X173601000Y-103837000D02*
X173601000Y-103237000D01*
X174701000Y-103837000D02*
X173601000Y-103837000D01*
X174701000Y-105637000D02*
X173601000Y-105637000D01*
X173601000Y-105637000D02*
X173601000Y-105037000D01*
X173601000Y-105037000D02*
X174701000Y-105037000D01*
X173601000Y-106737000D02*
X174701000Y-106737000D01*
X173601000Y-107337000D02*
X173601000Y-106737000D01*
X174701000Y-107337000D02*
X173601000Y-107337000D01*
X174701000Y-109137000D02*
X173601000Y-109137000D01*
X173601000Y-109137000D02*
X173601000Y-108537000D01*
X173601000Y-108537000D02*
X174701000Y-108537000D01*
X173601000Y-110337000D02*
X174701000Y-110337000D01*
X173601000Y-110937000D02*
X173601000Y-110337000D01*
X174701000Y-110937000D02*
X173601000Y-110937000D01*
X174701000Y-112737000D02*
X173601000Y-112737000D01*
X173601000Y-112737000D02*
X173601000Y-112137000D01*
X173601000Y-112137000D02*
X174701000Y-112137000D01*
X173601000Y-113837000D02*
X174701000Y-113837000D01*
X173601000Y-114437000D02*
X173601000Y-113837000D01*
X174701000Y-114437000D02*
X173601000Y-114437000D01*
X174701000Y-116237000D02*
X173601000Y-116237000D01*
X173601000Y-116237000D02*
X173601000Y-115637000D01*
X173601000Y-115637000D02*
X174701000Y-115637000D01*
X177801000Y-119237000D02*
X178901000Y-119237000D01*
X177801000Y-119837000D02*
X177801000Y-119237000D01*
X178901000Y-119837000D02*
X177801000Y-119837000D01*
X178901000Y-121637000D02*
X177801000Y-121637000D01*
X177801000Y-121637000D02*
X177801000Y-121037000D01*
X177801000Y-121037000D02*
X178901000Y-121037000D01*
X177801000Y-128037000D02*
X178901000Y-128037000D01*
X177801000Y-128637000D02*
X177801000Y-128037000D01*
X178901000Y-128637000D02*
X177801000Y-128637000D01*
X178901000Y-130437000D02*
X177801000Y-130437000D01*
X177801000Y-130437000D02*
X177801000Y-129837000D01*
X177801000Y-129837000D02*
X178901000Y-129837000D01*
X177801000Y-136937000D02*
X178901000Y-136937000D01*
X177801000Y-137537000D02*
X177801000Y-136937000D01*
X178901000Y-137537000D02*
X177801000Y-137537000D01*
X178901000Y-118037000D02*
X174701000Y-118037000D01*
X174701000Y-122537000D02*
X178901000Y-122537000D01*
X178901000Y-127137000D02*
X174701000Y-127137000D01*
X174701000Y-131437000D02*
X178901000Y-131437000D01*
X178901000Y-136037000D02*
X174701000Y-136037000D01*
X178901000Y-140337000D02*
X174701000Y-140337000D01*
X178901000Y-139337000D02*
X177801000Y-139337000D01*
X177801000Y-139337000D02*
X177801000Y-138737000D01*
X177801000Y-138737000D02*
X178901000Y-138737000D01*
X173501000Y-123537000D02*
X174601000Y-123537000D01*
X173501000Y-124137000D02*
X173501000Y-123537000D01*
X174601000Y-124137000D02*
X173501000Y-124137000D01*
X174601000Y-126137000D02*
X173501000Y-126137000D01*
X173501000Y-126137000D02*
X173501000Y-125537000D01*
X173501000Y-125537000D02*
X174601000Y-125537000D01*
X173601000Y-132437000D02*
X174701000Y-132437000D01*
X173601000Y-133037000D02*
X173601000Y-132437000D01*
X174701000Y-133037000D02*
X173601000Y-133037000D01*
X174701000Y-135037000D02*
X173601000Y-135037000D01*
X173601000Y-135037000D02*
X173601000Y-134437000D01*
X173601000Y-134437000D02*
X174701000Y-134437000D01*
X173601000Y-141237000D02*
X174701000Y-141237000D01*
X173601000Y-141837000D02*
X173601000Y-141237000D01*
X174701000Y-141837000D02*
X173601000Y-141837000D01*
X174701000Y-143937000D02*
X173601000Y-143937000D01*
X173601000Y-143937000D02*
X173601000Y-143337000D01*
X173601000Y-143337000D02*
X174701000Y-143337000D01*
X174701000Y-127137000D02*
X174701000Y-122537000D01*
X178901000Y-122537000D02*
X178901000Y-118037000D01*
X174701000Y-118037000D02*
X174701000Y-101737000D01*
X174701000Y-101737000D02*
X201701000Y-101737000D01*
X201701000Y-101737000D02*
X201701000Y-144837000D01*
X201701000Y-144537000D02*
X201701000Y-145937000D01*
X201701000Y-145937000D02*
X174701000Y-145937000D01*
X174701000Y-145937000D02*
X174701000Y-140337000D01*
X178901000Y-140337000D02*
X178901000Y-136037000D01*
X174701000Y-136037000D02*
X174701000Y-131437000D01*
X178901000Y-131437000D02*
X178901000Y-127137000D01*
D14*
G36*
X208912460Y-148333460D02*
X208981040Y-148297900D01*
X209133440Y-148201380D01*
X209349340Y-148059140D01*
X209605880Y-147886420D01*
X209862420Y-147713700D01*
X210075780Y-147571460D01*
X210223100Y-147477480D01*
X210284060Y-147441920D01*
X210317080Y-147454620D01*
X210441540Y-147513040D01*
X210619340Y-147604480D01*
X210720940Y-147657820D01*
X210883500Y-147728940D01*
X210964780Y-147744180D01*
X210977480Y-147721320D01*
X211038440Y-147596860D01*
X211132420Y-147383500D01*
X211254340Y-147101560D01*
X211394040Y-146771360D01*
X211546440Y-146415760D01*
X211696300Y-146052540D01*
X211841080Y-145707100D01*
X211968080Y-145397220D01*
X212069680Y-145143220D01*
X212135720Y-144967960D01*
X212161120Y-144891760D01*
X212153500Y-144876520D01*
X212072220Y-144795240D01*
X211929980Y-144688560D01*
X211622640Y-144439640D01*
X211317840Y-144061180D01*
X211134960Y-143629380D01*
X211071460Y-143151860D01*
X211124800Y-142707360D01*
X211300060Y-142280640D01*
X211597240Y-141899640D01*
X211955380Y-141612620D01*
X212377020Y-141432280D01*
X212852000Y-141373860D01*
X213304120Y-141427200D01*
X213741000Y-141597380D01*
X214124540Y-141889480D01*
X214284560Y-142077440D01*
X214508080Y-142463520D01*
X214635080Y-142880080D01*
X214650320Y-142986760D01*
X214630000Y-143443960D01*
X214495380Y-143880840D01*
X214254080Y-144272000D01*
X213918800Y-144592040D01*
X213878160Y-144622520D01*
X213723220Y-144739360D01*
X213619080Y-144818100D01*
X213537800Y-144884140D01*
X214119460Y-146283680D01*
X214210900Y-146507200D01*
X214370920Y-146890740D01*
X214510620Y-147218400D01*
X214622380Y-147482560D01*
X214701120Y-147657820D01*
X214736680Y-147726400D01*
X214739220Y-147731480D01*
X214790020Y-147739100D01*
X214896700Y-147701000D01*
X215092280Y-147607020D01*
X215221820Y-147540980D01*
X215369140Y-147469860D01*
X215437720Y-147441920D01*
X215493600Y-147472400D01*
X215635840Y-147566380D01*
X215844120Y-147703540D01*
X216095580Y-147873720D01*
X216331800Y-148036280D01*
X216552780Y-148181060D01*
X216712800Y-148282660D01*
X216789000Y-148325840D01*
X216801700Y-148325840D01*
X216870280Y-148285200D01*
X216994740Y-148181060D01*
X217185240Y-148000720D01*
X217457020Y-147734020D01*
X217497660Y-147693380D01*
X217718640Y-147469860D01*
X217898980Y-147279360D01*
X218020900Y-147144740D01*
X218064080Y-147083780D01*
X218064080Y-147083780D01*
X218023440Y-147007580D01*
X217921840Y-146847560D01*
X217777060Y-146626580D01*
X217599260Y-146364960D01*
X217136980Y-145691860D01*
X217390980Y-145056860D01*
X217469720Y-144863820D01*
X217568780Y-144627600D01*
X217642440Y-144457420D01*
X217680540Y-144386300D01*
X217749120Y-144360900D01*
X217924380Y-144320260D01*
X218175840Y-144266920D01*
X218475560Y-144211040D01*
X218762580Y-144157700D01*
X219021660Y-144109440D01*
X219209620Y-144071340D01*
X219293440Y-144056100D01*
X219313760Y-144043400D01*
X219329000Y-144002760D01*
X219339160Y-143916400D01*
X219346780Y-143758920D01*
X219349320Y-143510000D01*
X219349320Y-143151860D01*
X219349320Y-143113760D01*
X219346780Y-142770860D01*
X219341700Y-142499080D01*
X219331540Y-142321280D01*
X219318840Y-142250160D01*
X219318840Y-142247620D01*
X219237560Y-142229840D01*
X219054680Y-142189200D01*
X218798140Y-142140940D01*
X218488260Y-142082520D01*
X218470480Y-142077440D01*
X218160600Y-142019020D01*
X217904060Y-141965680D01*
X217723720Y-141922500D01*
X217647520Y-141899640D01*
X217632280Y-141876780D01*
X217568780Y-141757400D01*
X217482420Y-141566900D01*
X217378280Y-141333220D01*
X217279220Y-141091920D01*
X217192860Y-140876020D01*
X217134440Y-140713460D01*
X217116660Y-140639800D01*
X217116660Y-140637260D01*
X217162380Y-140563600D01*
X217269060Y-140406120D01*
X217418920Y-140185140D01*
X217599260Y-139923520D01*
X217611960Y-139903200D01*
X217787220Y-139641580D01*
X217932000Y-139423140D01*
X218028520Y-139265660D01*
X218064080Y-139197080D01*
X218061540Y-139192000D01*
X218003120Y-139113260D01*
X217871040Y-138965940D01*
X217683080Y-138767820D01*
X217454480Y-138539220D01*
X217383360Y-138468100D01*
X217129360Y-138221720D01*
X216954100Y-138059160D01*
X216844880Y-137972800D01*
X216791540Y-137955020D01*
X216791540Y-137955020D01*
X216712800Y-138003280D01*
X216547700Y-138109960D01*
X216324180Y-138259820D01*
X216062560Y-138440160D01*
X216042240Y-138452860D01*
X215783160Y-138628120D01*
X215567260Y-138775440D01*
X215412320Y-138877040D01*
X215346280Y-138917680D01*
X215333580Y-138917680D01*
X215229440Y-138887200D01*
X215044020Y-138821160D01*
X214815420Y-138734800D01*
X214576660Y-138638280D01*
X214358220Y-138546840D01*
X214193120Y-138470640D01*
X214116920Y-138427460D01*
X214114380Y-138422380D01*
X214086440Y-138330940D01*
X214043260Y-138135360D01*
X213987380Y-137868660D01*
X213926420Y-137548620D01*
X213916260Y-137497820D01*
X213857840Y-137187940D01*
X213809580Y-136933940D01*
X213771480Y-136756140D01*
X213753700Y-136682480D01*
X213710520Y-136672320D01*
X213558120Y-136662160D01*
X213326980Y-136657080D01*
X213047580Y-136652000D01*
X212752940Y-136654540D01*
X212465920Y-136662160D01*
X212219540Y-136669780D01*
X212044280Y-136682480D01*
X211973160Y-136697720D01*
X211968080Y-136700260D01*
X211942680Y-136796780D01*
X211899500Y-136992360D01*
X211843620Y-137261600D01*
X211785200Y-137579100D01*
X211772500Y-137634980D01*
X211714080Y-137944860D01*
X211663280Y-138198860D01*
X211625180Y-138371580D01*
X211604860Y-138440160D01*
X211579460Y-138455400D01*
X211449920Y-138511280D01*
X211244180Y-138597640D01*
X210987640Y-138701780D01*
X210390740Y-138940540D01*
X209661760Y-138442700D01*
X209595720Y-138396980D01*
X209334100Y-138219180D01*
X209118200Y-138074400D01*
X208965800Y-137977880D01*
X208904840Y-137942320D01*
X208899760Y-137944860D01*
X208828640Y-138008360D01*
X208683860Y-138142980D01*
X208485740Y-138336020D01*
X208254600Y-138564620D01*
X208086960Y-138734800D01*
X207886300Y-138940540D01*
X207756760Y-139077700D01*
X207688180Y-139166600D01*
X207662780Y-139219940D01*
X207670400Y-139255500D01*
X207716120Y-139329160D01*
X207822800Y-139489180D01*
X207975200Y-139710160D01*
X208150460Y-139969240D01*
X208297780Y-140185140D01*
X208455260Y-140428980D01*
X208559400Y-140604240D01*
X208594960Y-140690600D01*
X208584800Y-140726160D01*
X208536540Y-140868400D01*
X208447640Y-141084300D01*
X208338420Y-141340840D01*
X208084420Y-141917420D01*
X207705960Y-141991080D01*
X207477360Y-142034260D01*
X207157320Y-142095220D01*
X206847440Y-142156180D01*
X206369920Y-142247620D01*
X206352140Y-144010380D01*
X206425800Y-144043400D01*
X206496920Y-144061180D01*
X206674720Y-144101820D01*
X206928720Y-144152620D01*
X207228440Y-144208500D01*
X207482440Y-144256760D01*
X207738980Y-144305020D01*
X207924400Y-144340580D01*
X208005680Y-144358360D01*
X208026000Y-144386300D01*
X208092040Y-144510760D01*
X208180940Y-144706340D01*
X208285080Y-144945100D01*
X208386680Y-145191480D01*
X208478120Y-145417540D01*
X208541620Y-145592800D01*
X208564480Y-145681700D01*
X208528920Y-145750280D01*
X208432400Y-145900140D01*
X208290160Y-146116040D01*
X208114900Y-146370040D01*
X207942180Y-146626580D01*
X207794860Y-146845020D01*
X207690720Y-147002500D01*
X207647540Y-147073620D01*
X207670400Y-147121880D01*
X207772000Y-147246340D01*
X207965040Y-147444460D01*
X208249520Y-147728940D01*
X208297780Y-147774660D01*
X208526380Y-147993100D01*
X208716880Y-148170900D01*
X208851500Y-148290280D01*
X208912460Y-148333460D01*
X208912460Y-148333460D01*
G37*
X208912460Y-148333460D02*
X208981040Y-148297900D01*
X209133440Y-148201380D01*
X209349340Y-148059140D01*
X209605880Y-147886420D01*
X209862420Y-147713700D01*
X210075780Y-147571460D01*
X210223100Y-147477480D01*
X210284060Y-147441920D01*
X210317080Y-147454620D01*
X210441540Y-147513040D01*
X210619340Y-147604480D01*
X210720940Y-147657820D01*
X210883500Y-147728940D01*
X210964780Y-147744180D01*
X210977480Y-147721320D01*
X211038440Y-147596860D01*
X211132420Y-147383500D01*
X211254340Y-147101560D01*
X211394040Y-146771360D01*
X211546440Y-146415760D01*
X211696300Y-146052540D01*
X211841080Y-145707100D01*
X211968080Y-145397220D01*
X212069680Y-145143220D01*
X212135720Y-144967960D01*
X212161120Y-144891760D01*
X212153500Y-144876520D01*
X212072220Y-144795240D01*
X211929980Y-144688560D01*
X211622640Y-144439640D01*
X211317840Y-144061180D01*
X211134960Y-143629380D01*
X211071460Y-143151860D01*
X211124800Y-142707360D01*
X211300060Y-142280640D01*
X211597240Y-141899640D01*
X211955380Y-141612620D01*
X212377020Y-141432280D01*
X212852000Y-141373860D01*
X213304120Y-141427200D01*
X213741000Y-141597380D01*
X214124540Y-141889480D01*
X214284560Y-142077440D01*
X214508080Y-142463520D01*
X214635080Y-142880080D01*
X214650320Y-142986760D01*
X214630000Y-143443960D01*
X214495380Y-143880840D01*
X214254080Y-144272000D01*
X213918800Y-144592040D01*
X213878160Y-144622520D01*
X213723220Y-144739360D01*
X213619080Y-144818100D01*
X213537800Y-144884140D01*
X214119460Y-146283680D01*
X214210900Y-146507200D01*
X214370920Y-146890740D01*
X214510620Y-147218400D01*
X214622380Y-147482560D01*
X214701120Y-147657820D01*
X214736680Y-147726400D01*
X214739220Y-147731480D01*
X214790020Y-147739100D01*
X214896700Y-147701000D01*
X215092280Y-147607020D01*
X215221820Y-147540980D01*
X215369140Y-147469860D01*
X215437720Y-147441920D01*
X215493600Y-147472400D01*
X215635840Y-147566380D01*
X215844120Y-147703540D01*
X216095580Y-147873720D01*
X216331800Y-148036280D01*
X216552780Y-148181060D01*
X216712800Y-148282660D01*
X216789000Y-148325840D01*
X216801700Y-148325840D01*
X216870280Y-148285200D01*
X216994740Y-148181060D01*
X217185240Y-148000720D01*
X217457020Y-147734020D01*
X217497660Y-147693380D01*
X217718640Y-147469860D01*
X217898980Y-147279360D01*
X218020900Y-147144740D01*
X218064080Y-147083780D01*
X218064080Y-147083780D01*
X218023440Y-147007580D01*
X217921840Y-146847560D01*
X217777060Y-146626580D01*
X217599260Y-146364960D01*
X217136980Y-145691860D01*
X217390980Y-145056860D01*
X217469720Y-144863820D01*
X217568780Y-144627600D01*
X217642440Y-144457420D01*
X217680540Y-144386300D01*
X217749120Y-144360900D01*
X217924380Y-144320260D01*
X218175840Y-144266920D01*
X218475560Y-144211040D01*
X218762580Y-144157700D01*
X219021660Y-144109440D01*
X219209620Y-144071340D01*
X219293440Y-144056100D01*
X219313760Y-144043400D01*
X219329000Y-144002760D01*
X219339160Y-143916400D01*
X219346780Y-143758920D01*
X219349320Y-143510000D01*
X219349320Y-143151860D01*
X219349320Y-143113760D01*
X219346780Y-142770860D01*
X219341700Y-142499080D01*
X219331540Y-142321280D01*
X219318840Y-142250160D01*
X219318840Y-142247620D01*
X219237560Y-142229840D01*
X219054680Y-142189200D01*
X218798140Y-142140940D01*
X218488260Y-142082520D01*
X218470480Y-142077440D01*
X218160600Y-142019020D01*
X217904060Y-141965680D01*
X217723720Y-141922500D01*
X217647520Y-141899640D01*
X217632280Y-141876780D01*
X217568780Y-141757400D01*
X217482420Y-141566900D01*
X217378280Y-141333220D01*
X217279220Y-141091920D01*
X217192860Y-140876020D01*
X217134440Y-140713460D01*
X217116660Y-140639800D01*
X217116660Y-140637260D01*
X217162380Y-140563600D01*
X217269060Y-140406120D01*
X217418920Y-140185140D01*
X217599260Y-139923520D01*
X217611960Y-139903200D01*
X217787220Y-139641580D01*
X217932000Y-139423140D01*
X218028520Y-139265660D01*
X218064080Y-139197080D01*
X218061540Y-139192000D01*
X218003120Y-139113260D01*
X217871040Y-138965940D01*
X217683080Y-138767820D01*
X217454480Y-138539220D01*
X217383360Y-138468100D01*
X217129360Y-138221720D01*
X216954100Y-138059160D01*
X216844880Y-137972800D01*
X216791540Y-137955020D01*
X216791540Y-137955020D01*
X216712800Y-138003280D01*
X216547700Y-138109960D01*
X216324180Y-138259820D01*
X216062560Y-138440160D01*
X216042240Y-138452860D01*
X215783160Y-138628120D01*
X215567260Y-138775440D01*
X215412320Y-138877040D01*
X215346280Y-138917680D01*
X215333580Y-138917680D01*
X215229440Y-138887200D01*
X215044020Y-138821160D01*
X214815420Y-138734800D01*
X214576660Y-138638280D01*
X214358220Y-138546840D01*
X214193120Y-138470640D01*
X214116920Y-138427460D01*
X214114380Y-138422380D01*
X214086440Y-138330940D01*
X214043260Y-138135360D01*
X213987380Y-137868660D01*
X213926420Y-137548620D01*
X213916260Y-137497820D01*
X213857840Y-137187940D01*
X213809580Y-136933940D01*
X213771480Y-136756140D01*
X213753700Y-136682480D01*
X213710520Y-136672320D01*
X213558120Y-136662160D01*
X213326980Y-136657080D01*
X213047580Y-136652000D01*
X212752940Y-136654540D01*
X212465920Y-136662160D01*
X212219540Y-136669780D01*
X212044280Y-136682480D01*
X211973160Y-136697720D01*
X211968080Y-136700260D01*
X211942680Y-136796780D01*
X211899500Y-136992360D01*
X211843620Y-137261600D01*
X211785200Y-137579100D01*
X211772500Y-137634980D01*
X211714080Y-137944860D01*
X211663280Y-138198860D01*
X211625180Y-138371580D01*
X211604860Y-138440160D01*
X211579460Y-138455400D01*
X211449920Y-138511280D01*
X211244180Y-138597640D01*
X210987640Y-138701780D01*
X210390740Y-138940540D01*
X209661760Y-138442700D01*
X209595720Y-138396980D01*
X209334100Y-138219180D01*
X209118200Y-138074400D01*
X208965800Y-137977880D01*
X208904840Y-137942320D01*
X208899760Y-137944860D01*
X208828640Y-138008360D01*
X208683860Y-138142980D01*
X208485740Y-138336020D01*
X208254600Y-138564620D01*
X208086960Y-138734800D01*
X207886300Y-138940540D01*
X207756760Y-139077700D01*
X207688180Y-139166600D01*
X207662780Y-139219940D01*
X207670400Y-139255500D01*
X207716120Y-139329160D01*
X207822800Y-139489180D01*
X207975200Y-139710160D01*
X208150460Y-139969240D01*
X208297780Y-140185140D01*
X208455260Y-140428980D01*
X208559400Y-140604240D01*
X208594960Y-140690600D01*
X208584800Y-140726160D01*
X208536540Y-140868400D01*
X208447640Y-141084300D01*
X208338420Y-141340840D01*
X208084420Y-141917420D01*
X207705960Y-141991080D01*
X207477360Y-142034260D01*
X207157320Y-142095220D01*
X206847440Y-142156180D01*
X206369920Y-142247620D01*
X206352140Y-144010380D01*
X206425800Y-144043400D01*
X206496920Y-144061180D01*
X206674720Y-144101820D01*
X206928720Y-144152620D01*
X207228440Y-144208500D01*
X207482440Y-144256760D01*
X207738980Y-144305020D01*
X207924400Y-144340580D01*
X208005680Y-144358360D01*
X208026000Y-144386300D01*
X208092040Y-144510760D01*
X208180940Y-144706340D01*
X208285080Y-144945100D01*
X208386680Y-145191480D01*
X208478120Y-145417540D01*
X208541620Y-145592800D01*
X208564480Y-145681700D01*
X208528920Y-145750280D01*
X208432400Y-145900140D01*
X208290160Y-146116040D01*
X208114900Y-146370040D01*
X207942180Y-146626580D01*
X207794860Y-146845020D01*
X207690720Y-147002500D01*
X207647540Y-147073620D01*
X207670400Y-147121880D01*
X207772000Y-147246340D01*
X207965040Y-147444460D01*
X208249520Y-147728940D01*
X208297780Y-147774660D01*
X208526380Y-147993100D01*
X208716880Y-148170900D01*
X208851500Y-148290280D01*
X208912460Y-148333460D01*
M02*
