G04 #@! TF.FileFunction,Soldermask,Bot*
%FSLAX46Y46*%
G04 Gerber Fmt 4.6, Leading zero omitted, Abs format (unit mm)*
G04 Created by KiCad (PCBNEW 4.0.5) date 09/14/17 13:27:59*
%MOMM*%
%LPD*%
G01*
G04 APERTURE LIST*
%ADD10C,0.100000*%
%ADD11R,2.100000X2.100000*%
%ADD12O,2.100000X2.100000*%
%ADD13O,2.000000X1.900000*%
%ADD14C,3.200000*%
G04 APERTURE END LIST*
D10*
D11*
X158369000Y-99695000D03*
D12*
X158369000Y-102235000D03*
X158369000Y-104775000D03*
X158369000Y-107315000D03*
X158369000Y-109855000D03*
X158369000Y-112395000D03*
X158369000Y-114935000D03*
X158369000Y-117475000D03*
X158369000Y-120015000D03*
X158369000Y-122555000D03*
X158369000Y-125095000D03*
X158369000Y-127635000D03*
X158369000Y-130175000D03*
X158369000Y-132715000D03*
X158369000Y-135255000D03*
X158369000Y-137795000D03*
X158369000Y-140335000D03*
X158369000Y-142875000D03*
X158369000Y-145415000D03*
X158369000Y-147955000D03*
D11*
X219075000Y-115697000D03*
D12*
X219075000Y-118237000D03*
X219075000Y-120777000D03*
X219075000Y-123317000D03*
X219075000Y-125857000D03*
X219075000Y-128397000D03*
X219075000Y-130937000D03*
D13*
X173101000Y-103496000D03*
X173101000Y-105274000D03*
X173101000Y-107052000D03*
X173101000Y-110608000D03*
X173101000Y-112386000D03*
X173101000Y-114164000D03*
X177201000Y-128388000D03*
X173101000Y-125857000D03*
X173101000Y-123807000D03*
X177201000Y-121276000D03*
X177201000Y-119498000D03*
X173101000Y-115942000D03*
X177201000Y-130166000D03*
X173101000Y-132697000D03*
X173101000Y-134747000D03*
X177201000Y-137278000D03*
X177201000Y-139056000D03*
X173101000Y-141587000D03*
X173101000Y-143637000D03*
D14*
X203701000Y-104703000D03*
X203701000Y-108703000D03*
X203701000Y-112703000D03*
X203701000Y-120323000D03*
X203701000Y-127943000D03*
X203701000Y-135563000D03*
X203701000Y-143183000D03*
M02*
